<?xml version="1.0" standalone="no"?>
<!DOCTYPE svg PUBLIC "-//W3C//DTD SVG 20010904//EN"
 "http://www.w3.org/TR/2001/REC-SVG-20010904/DTD/svg10.dtd">
<svg version="1.0" xmlns="http://www.w3.org/2000/svg"
 width="214.000000pt" height="214.000000pt" viewBox="0 0 214.000000 214.000000"
 preserveAspectRatio="xMidYMid meet">
<metadata>
Created by potrace 1.14, written by Peter Selinger 2001-2017
</metadata>
<g transform="translate(0.000000,214.000000) scale(0.100000,-0.100000)"
fill="#000000" stroke="none">
<path d="M1065 1983 c-205 -38 -286 -67 -410 -148 -190 -125 -341 -336 -396
-555 -24 -91 -31 -270 -16 -362 19 -120 83 -278 155 -387 129 -194 365 -353
576 -386 21 -4 48 -9 60 -11 27 -5 202 -5 241 1 17 2 47 6 67 10 164 24 366
131 484 257 48 51 108 128 100 128 -3 0 -34 -17 -68 -38 -141 -85 -278 -125
-433 -124 -369 1 -649 208 -767 566 -39 120 -46 271 -17 390 61 250 227 458
445 557 79 36 250 82 268 72 6 -3 7 -2 3 3 -22 23 -214 41 -292 27z"/>
<path d="M1442 1708 c-5 -7 -12 -56 -14 -109 -4 -91 -3 -96 14 -85 22 13 35
57 34 109 -1 22 4 37 11 37 8 0 8 7 0 30 -12 32 -28 38 -45 18z"/>
<path d="M1079 1661 c-22 -18 -23 -19 -5 -46 14 -21 16 -32 7 -53 -5 -15 -12
-40 -15 -57 -15 -100 -20 -116 -38 -126 -15 -8 -18 -17 -13 -32 4 -12 8 -44 9
-72 1 -38 -2 -53 -16 -63 -13 -10 -15 -18 -8 -37 5 -14 6 -25 2 -25 -4 0 0 -6
8 -13 24 -19 21 -110 -4 -120 -16 -6 -18 -15 -14 -64 3 -34 11 -60 20 -67 11
-8 15 -27 14 -66 l-1 -55 -44 0 c-51 0 -58 -12 -55 -90 2 -73 2 -71 29 -104
41 -48 189 -119 288 -137 107 -19 141 -22 222 -19 175 7 293 54 296 118 5 92
-1 211 -9 219 -6 6 -24 11 -40 10 -24 0 -31 5 -41 35 -27 74 -140 163 -208
163 -29 0 -39 18 -16 27 16 6 15 8 -7 13 -18 5 -25 13 -24 30 1 21 0 21 -12 6
-13 -18 -9 -46 7 -46 4 0 6 -7 2 -15 -3 -9 -11 -14 -17 -12 -15 6 -104 -21
-135 -41 -34 -22 -52 -39 -73 -71 l-18 -26 0 28 c0 15 6 30 13 33 7 2 14 18
15 35 1 17 3 33 3 37 5 32 -3 62 -16 62 -11 0 -15 13 -15 53 0 29 4 57 9 63 5
5 12 24 16 42 5 25 3 32 -9 32 -19 0 -24 40 -13 102 6 40 5 52 -12 75 -10 16
-24 59 -31 97 -6 38 -15 77 -20 87 -7 13 -4 21 13 32 l22 15 -26 -5 c-34 -6
-47 22 -23 48 22 24 13 24 -17 0z m1 -592 c0 -36 -4 -49 -12 -46 -12 3 -20 81
-10 100 10 20 22 -10 22 -54z m59 0 c-3 -67 -28 -68 -27 -1 1 53 5 65 19 56 5
-3 9 -28 8 -55z"/>
<path d="M1650 1623 c-36 -12 -75 -22 -87 -23 -32 0 -29 -18 4 -31 26 -10 75
-3 128 18 14 5 16 3 10 -7 -6 -9 -4 -11 6 -5 28 16 48 38 43 46 -14 23 -42 24
-104 2z"/>
<path d="M1646 1503 c-15 -15 -4 -63 23 -103 16 -24 27 -49 25 -55 -5 -13 43
-38 57 -30 16 11 10 43 -15 72 -13 15 -37 49 -53 75 -17 26 -33 45 -37 41z"/>
<path d="M1282 1461 c2 -19 16 -28 78 -51 41 -15 83 -30 93 -35 25 -11 22 17
-5 42 -28 26 -94 54 -104 45 -4 -4 -4 1 -1 10 5 14 0 16 -29 15 -30 -2 -34 -5
-32 -26z"/>
<path d="M1523 1335 c-23 -25 -47 -45 -52 -45 -8 0 -21 -33 -21 -57 0 -6 11
-11 24 -10 16 1 35 17 57 47 17 25 45 60 62 78 l31 32 -29 0 c-21 0 -40 -12
-72 -45z"/>
</g>
</svg>
