<?xml version="1.0" encoding="utf-8"?>
<!-- Generator: Adobe Illustrator 26.0.0, SVG Export Plug-In . SVG Version: 6.00 Build 0)  -->
<svg version="1.1" id="Layer_1" xmlns="http://www.w3.org/2000/svg" xmlns:xlink="http://www.w3.org/1999/xlink" x="0px" y="0px"
	 viewBox="0 0 1920 1189.8" style="enable-background:new 0 0 1920 1189.8;" xml:space="preserve">
<style type="text/css">
	.st0{fill:url(#SVGID_1_);}
</style>
<g>
	<linearGradient id="SVGID_1_" gradientUnits="userSpaceOnUse" x1="960" y1="295.6956" x2="960" y2="1662.1511">
		<stop  offset="2.770450e-07" style="stop-color:#257995"/>
		<stop  offset="1" style="stop-color:#1D455A;stop-opacity:0.98"/>
	</linearGradient>
	<path class="st0" d="M1912.8,630c1.1-3.6,1.9-7.4,1.9-11.3c0-16.6-10.6-30.6-25.3-35.9c0-0.2,0.1-0.4,0.1-0.6
		c0-5.7-3.6-10.4-8.6-12.3l-1.8-5.6c0.3-0.5,0.6-1.1,0.6-1.7c0-1.3-0.8-2.4-1.9-2.9l-1.1-17.6c0-0.1-0.1-0.1-0.2-0.1
		c-0.1,0-0.2,0.1-0.2,0.1l-1.1,17.6c-1.1,0.5-1.9,1.6-1.9,2.9c0,0.7,0.2,1.2,0.6,1.7l-1.8,5.6c-5,1.8-8.6,6.6-8.6,12.3
		c0,0.2,0,0.4,0.1,0.6c-14.7,5.3-25.3,19.3-25.3,35.9c0,4,0.8,7.7,1.9,11.3h-13.2v0.2h-1.3v-66.6h0.7c1.7,0,3-1.4,3-3v-1.7
		c0-1.7-1.3-3-3-3h-4.1c0.2-1.1,0.3-2.3,0.3-3.4c0-8.1-4.3-15.2-10.7-19.2c-3.9-2.4-7.4-5.6-10.1-9.4c0.5-0.5,0.8-1.1,0.8-1.9
		c0-1.1-0.6-2-1.6-2.4l-0.7-10.2h-0.8l-0.7,10.2c-0.9,0.4-1.6,1.3-1.6,2.4c0,0.7,0.3,1.4,0.8,1.9c-2.7,3.8-6.1,6.9-10.1,9.4
		c-6.4,4-10.7,11.1-10.7,19.2c0,1.2,0.1,2.3,0.3,3.4h-4c-1.7,0-3,1.4-3,3v1.7c0,1.7,1.4,3,3,3h0.6v42.4h-9.8
		c2.6-4.8,3.9-9.9,3.9-15.2c0-18.4-16.8-34.6-41.9-43.6c-16.4-5.9-30.3-13.8-41.2-23c0.4-0.8,0.7-1.7,0.7-2.6c0-2.4-1.5-4.5-3.5-5.4
		l-1.5-23.2h-1.7l-1.5,23.2c-2.1,0.9-3.5,3-3.5,5.4c0,1,0.3,1.8,0.7,2.6c-10.9,9.2-24.7,17.1-41.2,23c-25.2,9-41.9,25.2-41.9,43.6
		c0,3.1,0.6,6.1,1.4,9h-7.2c2.3-7.5,3.6-15.4,3.6-23.6c0-40.9-30.8-74.6-70.5-79.2l-5-15.3c-0.1-0.2-0.5-0.3-1.2-0.4l-2.8-42.5
		c0-0.1-0.2-0.3-0.4-0.3s-0.3,0.1-0.4,0.3l-2.8,42.5c-0.7,0.1-1.1,0.2-1.2,0.4l-5,15.3c-29.7,3.5-54.4,23.2-65,50.1l-0.8-44.8h4.2
		v-8h-4.4l-1.1-56.8h4.8V433h-2.8v-1.5h-2.9v-20.7h2.9v-2h-4.5c0.4-1.2,0.6-2.5,0.6-3.9c0-4.7-2.5-8.9-6.3-11.2
		c-2.3-1.4-4.3-3.3-5.9-5.5c0,0,0,0,0,0c0.3-0.3,0.5-0.7,0.5-1.1c0-0.6-0.4-1.2-0.9-1.4l-0.3-5.3c0.2,0,0.5,0.1,0.7,0.1
		c2,0,3.6-1.5,3.9-3.4c-0.5,1.1-1.7,1.9-3,1.9c-1.8,0-3.3-1.5-3.3-3.3c0-1.3,0.8-2.4,1.9-3c-1.9,0.2-3.4,1.9-3.4,3.9
		c0,1.7,1.1,3.2,2.7,3.7l-0.4,5.4c-0.5,0.2-0.9,0.8-0.9,1.4c0,0.4,0.2,0.8,0.5,1.1l0,0c-1.6,2.2-3.6,4.1-5.9,5.5
		c-3.7,2.3-6.3,6.5-6.3,11.2c0,1.4,0.2,2.7,0.6,3.9h-4.5v2h2.8v20.7h-2.8v1.5h-2.8v4.6h4.8l-1.1,56.8h-4.4v8h4.2l-1.2,62h-6.2v8h6.1
		l-0.5,28.1h-21.6c6.8-12.8,10.5-26.4,10.5-40.5c0-49.2-44.7-92.2-111.9-116.2c-43.6-15.6-81.1-36.4-110.1-60.8c1.2-2.3,2-4.8,2-7.6
		c0-6.4-3.9-12-9.4-14.4l-4-62h-4.6l-4,62c-5.5,2.4-9.4,8-9.4,14.4c0,2.8,0.8,5.3,2,7.6c-29,24.5-66.2,45.1-110.1,60.8
		c-12.5,4.5-24.2,9.6-35,15.3V279.9h1.1c2.7,0,4.9-2.2,4.9-4.9v-2.8c0-2.7-2.2-4.9-4.9-4.9h-6.6c0.3-1.8,0.5-3.6,0.5-5.5
		c0-13.1-6.9-24.6-17.3-31c-6.4-3.9-11.9-9.1-16.3-15.2c0.8-0.8,1.3-1.8,1.3-3.1c0-1.7-1-3.2-2.5-3.8l-1.1-16.5h-1.2l-1.1,16.5
		c-1.5,0.6-2.5,2.1-2.5,3.8c0,1.2,0.5,2.3,1.3,3.1c-4.4,6.1-9.9,11.2-16.3,15.2c-10.4,6.4-17.3,17.9-17.3,31c0,1.9,0.2,3.7,0.5,5.5
		H910c-2.7,0-4.9,2.2-4.9,4.9v2.8c0,2.7,2.2,4.9,4.9,4.9h0.9v113.9c-13.1-39-39.6-71.8-74-93c-30.6-18.9-57.1-43.7-78.1-72.8
		c3.9-3.7,6.4-8.9,6.4-14.6c0-8.2-5-15.3-12.1-18.4l-4.6-70.3c3,0.5,6.1,0.9,9.3,0.9c26.6,0,48.4-19.8,51.8-45.5
		c-7.1,14.7-22.1,24.9-39.5,24.9c-24.3,0-43.9-19.7-43.9-43.9c0-17.4,10.2-32.4,24.9-39.5c-25.6,3.3-45.5,25.2-45.5,51.8
		c0,23.2,15.1,42.8,36,49.6l-4.7,72c-7.1,3.1-12.1,10.2-12.1,18.4c0,5.8,2.5,11,6.4,14.7c-21,29.2-47.3,53.8-78.1,72.8
		c-49.8,30.8-83,85.8-83,148.6c0,18,2.7,35.4,7.8,51.7h-41.6c0.2-2.7,0.3-5.5,0.3-8.3c0-58-43.6-105.7-99.9-112.2l-7.1-21.7
		c-0.1-0.2-0.7-0.4-1.6-0.6l-3.9-60.2c0-0.2-0.2-0.4-0.5-0.4c-0.3,0-0.5,0.2-0.5,0.4l-3.9,60.2c-0.9,0.1-1.6,0.3-1.6,0.6l-7.2,21.7
		c-56.2,6.5-99.9,54.2-99.9,112.2c0,11.6,1.8,22.9,5,33.4h-38.5v17h17.9v86.9h-40.6l-2.3-121.1h10.6v-14H252l-2.1-109h7.4v-14h-7.7
		l-1.9-99.8h8.4v-8.1h-4.9v-2.7h-5v-36.3h5v-3.5h-7.9c0.7-2.2,1-4.5,1-6.9c0-8.3-4.4-15.6-11-19.7c-4-2.5-7.6-5.8-10.3-9.7
		c0,0,0,0,0,0c0.5-0.5,0.8-1.2,0.8-1.9c0-1.1-0.7-2-1.6-2.4l-0.6-9.3c0.4,0.1,0.8,0.1,1.2,0.1c3.5,0,6.4-2.6,6.9-6
		c-0.9,1.9-2.9,3.3-5.2,3.3c-3.2,0-5.8-2.6-5.8-5.8c0-2.3,1.4-4.3,3.3-5.2c-3.4,0.4-6,3.3-6,6.9c0,3.1,2,5.6,4.8,6.5l-0.6,9.6
		c-0.9,0.4-1.6,1.4-1.6,2.4c0,0.8,0.3,1.4,0.8,1.9c0,0,0,0,0,0c-2.8,3.9-6.2,7.1-10.4,9.7c-6.6,4.1-11,11.3-11,19.7
		c0,2.4,0.4,4.7,1.1,6.9h-7.9v3.5h4.9v36.3h-4.9v2.7h-5v8.1h8.5l-1.9,99.8H185v14h7.4l-2.1,109h-10.9v14h10.7l-2.3,121.1h-20.5
		V414.1h1.8c4.1,0,7.4-3.3,7.4-7.5v-4.2c0-4.1-3.3-7.5-7.4-7.5H159c0.4-2.8,0.7-5.6,0.7-8.4c0-20-10.6-37.5-26.4-47.3
		c-9.7-6-18.2-13.9-24.8-23.2c1.2-1.2,2-2.8,2-4.6c0-2.6-1.6-4.9-3.8-5.9l-1.6-25.2h-1.9l-1.6,25.2c-2.3,1-3.8,3.2-3.8,5.9
		c0,1.8,0.8,3.5,2,4.7c-6.7,9.3-15,17.1-24.8,23.1C59,349,48.4,366.5,48.4,386.5c0,2.9,0.3,5.7,0.7,8.4h-9.8c-4.1,0-7.5,3.3-7.5,7.5
		v4.2c0,4.1,3.3,7.5,7.5,7.5h1.4v216.1L0,651.4v538.4h1920v-554 M1813.8,583c0-6,1.8-11,4.2-12.5c2.4,1.5,4.2,6.5,4.2,12.5v23.5
		h-8.3V583z M1789.2,580.5c0-6.6,4.5-12.2,10.5-13.8c6.1,1.7,10.5,7.2,10.5,13.8v26h-15.9v-0.4h-5.1V580.5z M1777.4,583
		c0-6,1.8-11,4.2-12.5c2.4,1.5,4.2,6.5,4.2,12.5v23.1h-8.3V583z M1426.9,414.5c0-0.6,0.5-1.1,1.1-1.1h0.5c0.6,0,1.1,0.5,1.1,1.1
		v16.9h-2.8V414.5z M1421.7,414.5c0-0.6,0.5-1.1,1.1-1.1h0.5c0.6,0,1.1,0.5,1.1,1.1v16.9h-2.8V414.5z M1416.4,414.5
		c0-0.6,0.5-1.1,1.1-1.1h0.5c0.6,0,1.1,0.5,1.1,1.1v16.9h-2.8V414.5z M1411.2,414.5c0-0.6,0.5-1.1,1.1-1.1h0.5
		c0.6,0,1.1,0.5,1.1,1.1v16.9h-2.8V414.5z M1406,414.5c0-0.6,0.5-1.1,1.1-1.1h0.5c0.6,0,1.1,0.5,1.1,1.1v16.9h-2.8V414.5z
		 M975.3,311.2c0-9.7,2.8-17.8,6.7-20.2c3.9,2.5,6.7,10.6,6.7,20.2v38h-13.4V311.2z M935.4,307.2c0-10.7,7.2-19.7,17-22.4
		c9.8,2.7,17,11.7,17,22.4v42h-34V307.2z M916.3,311.2c0-9.7,2.8-17.8,6.7-20.2c3.9,2.5,6.7,10.6,6.7,20.2v38h-13.4V311.2z
		 M237,231.9c0-1.1,0.9-2,2-2h1c1.1,0,2,0.9,2,2v29.7H237V231.9z M227.8,231.9c0-1.1,0.9-2,2-2h1c1.1,0,2,0.9,2,2v29.7h-4.9V231.9z
		 M218.7,231.9c0-1.1,0.9-2,2-2h1c1.1,0,2,0.9,2,2v29.7h-4.9V231.9z M209.5,231.9c0-1.1,0.9-2,2-2h1c1.1,0,2,0.9,2,2v29.7h-4.9
		V231.9z M200.3,231.9c0-1.1,0.9-2,2-2h1c1.1,0,2,0.9,2,2v29.8h-4.9V231.9z M138.9,461.7c0-14.7,4.3-27.1,10.2-30.9
		c5.9,3.8,10.2,16.1,10.2,30.9v57.9h-20.5V461.7z M78.1,455.6c0-16.3,11-30,25.9-34.1c15,4.2,25.9,17.8,25.9,34.1v64H78.1V455.6z
		 M49,461.7c0-14.7,4.3-27.1,10.2-30.9c5.9,3.8,10.2,16.1,10.2,30.9v57.9H49V461.7z"/>
</g>
</svg>
