<svg
version="1.1"
xmlns="http://www.w3.org/2000/svg"
viewBox="0 0 214.5 214.5"
className="h-12 mx-auto"
>
<path
    fill="#01773d"
    d="M102.3 173.3h-.3v-.2c.1.1.2.1.3.2zm64.9-36.3c-.8-3.5-2.4-6.7-4.6-9.5-.9-1.2-1.9-2.3-3.1-3.3-2.2-2.1-4.8-3.8-7.6-5-1-.4-2-.8-3.1-1.1-2-.6-4.2-1-6.3-1.2 0-.3-.1-.6-.4-.8.1-.1.1-.3.1-.4 0-.2-.1-.6-.2-1 1.4 0 2.5-1 2.9-2.2-.8 1.1-2.1 1.4-3.1 1-.2-.1-.5-.2-.7-.3-.7-.4-1.2-1.2-1.3-2-.1-1.1.4-2.2 1.3-2.7.1-.1.1-.1.2-.1h-.2c-1.1.2-2.3 1.2-2.5 2.8-.2 1.5.7 2.8 2 3.3-.2.4-.3.9-.3 1.2 0 .1 0 .2.1.3-.3.2-.5.5-.5.9-.6 0-1.3 0-1.9.1-2.7.2-5.2.7-7.6 1.6-1.1.4-2.1.8-3.1 1.3-2.9 1.5-5.5 3.4-7.6 5.7-1.2 1.2-2.2 2.5-3.1 3.9-.4.7-.9 1.4-1.2 2.2V125h.2l.4-.1.6-.2 1.3-.5 1.1-5.1v-7.7h-3.4v-11.3l1-.6 1-.6v-3.1l.9-.8v-2.6l-1.9-.8-1-.4v-10l.6-1.7.4-.5.5-.5v-2.4l-.5-.2-2.9-1.3-3.1-15.8.3.1v-1.5l-1.4-.7h-.5c0-.1.1-.3.2-.4.4-.6.5-1.1-.1-1.6l-.1-.1-.1-.1v-.1c0-.1.1-.1.1-.1.2-.2.3-.5.3-.7h.5c.2 0 .5-.1.7-.2 1.1-.4 1.9-1.3 2.2-2.1-.8 1-1.8 1.4-2.8 1.3h-.4c-.1 0-.3-.1-.4-.1-.1 0-.2-.1-.3-.1-.1 0-.2-.1-.2-.1-.2-.1-.4-.3-.5-.4-.4-.4-.8-.9-1-1.4-.2-.6-.2-1.2-.1-1.8.2-.9 1-1.9 2.1-2.3.4-.2.9-.2 1.4-.2-.4-.2-.9-.3-1.4-.2-.9 0-1.8.4-2.6 1.1-.2.2-.3.4-.5.6-.7 1.1-.9 2.6-.3 3.8.1.2.2.3.3.4.5.7 1.1 1.2 1.9 1.5 0 .4.1.7.4 1.1v.1c0 .1-.1.2-.1.2-.6.5-.6 1-.1 1.6.1.1.1.3.2.4h-.6l-1.4.7V59l.3-.1-.5 2.7-2.6 13.1-3.3 1.5v2.4l.9 1 .6 1.7v10.1l-3 1.2V95l.9.8v3.1l2.1 1.2v11.3h-3.4v7.7l.2 1 .8 4.1 1.9.7.4.1h.3v12H91.8l-.2 10.5c-.1 3.6 1.3 7 3.8 9.5.7.7 1.5 1.4 2.4 1.9.2.1.5.3.7.4 2.4 1.5 5 3 7.6 4.2 1 .5 2 .9 3.1 1.4 2.5 1 5 1.9 7.6 2.8 1 .3 2 .6 3.1.9 2.5.7 5 1.3 7.6 1.7.3.1.7.1 1.1.2.7.1 1.3.2 2 .3 2.6.4 5.1.6 7.6.7 1 .1 2 .1 3.1.1 2.6 0 5.1 0 7.6-.3 1-.1 2-.2 3.1-.3 2.6-.3 5.1-.8 7.6-1.3 1-.2 2-.5 3.1-.7 2.2-.6 4.4-1.3 6.6-2.1.4-.1.7-.3 1-.5 1.2-.6 2.3-1.5 3.1-2.6 1.1-1.5 1.7-3.3 1.7-5.2v-18.8c0-1.6-1.3-2.9-2.9-2.9h-5zm-60-25.6h-2.9v-10c0-.8.7-1.5 1.5-1.4h.2c.7.1 1.1.8 1.1 1.5v9.9zm5.8 0h-2.9v-10c0-.8.7-1.5 1.5-1.4.8 0 1.4.7 1.4 1.5v9.9z"
></path>
<path
    fill="#01773d"
    d="M192.2 159.3c-14.3 21.7-34.4 34.7-59.8 39.3-44.4 7.9-81.8-14-99.4-48.9-19.3-38.3-12.1-80 18.7-109.8 14-13.6 30.8-21.5 50.1-24.4 11.1-1.7 22.1-1.9 33.2 1.5-28.7 3.9-51 17.6-64.4 43.4-13.6 26-12.4 52.3 2.1 77.5 12.1 21.1 30.9 33.5 54.8 37.6 23.8 4 45.2-2.1 64.7-16.2z"
></path>
<path
    fill="#ffffff"
    d="M130.6 138c-.1 0-.2-.1-.3-.1.1 0 .2 0 .3-.1 1.2-.3 2.1-1.2 2.1-2.6 0-1.4-.7-2.3-2.1-2.8-.7-.3-1.7-.4-2.8-.4h-7c-.3 0-.4.1-.4.4v11.5c0 .3.1.4.4.4h7.5c.9 0 1.7-.1 2.3-.3 1.8-.5 2.7-1.6 2.7-3.2s-1.3-2.5-2.7-2.8zm-5.6-2.9h2.1c.2 0 .3 0 .4.1.5.1.6.5.6.8 0 .3-.1.7-.6.8-.1 0-.3.1-.4.1H125v-1.8zm2.6 6.1H125v-1.8h2.5c.8 0 1 .5 1 .9 0 .5-.2.9-.9.9zm20.3 2.5l-3.9-5.9 3.7-5.2c.3-.3.1-.6-.3-.6h-3.9c-.3 0-.5.1-.6.3l-1.6 2.3-1.1 1.6h-.7v-3.9c0-.3-.1-.4-.4-.4h-3.8c-.3 0-.4.1-.4.4v11.5c0 .3.1.4.4.4h3.8c.3 0 .4-.1.4-.4V140h.8l1.1 1.6 1.5 2.3c.2.2.4.3.6.3h4.2c.3.1.4-.1.2-.5zm-25.5 5.6c0-.1.1-.2.4-.2.5 0 1 .2 1.3.3.1.1.2 0 .3-.1l.4-.8c.1-.1 0-.2-.1-.3-.4-.2-1-.5-2-.5-1.4 0-2.3.7-2.3 1.7 0 1.8 2.5 1.5 2.5 2 0 .1-.1.2-.4.2-.7 0-1.1-.1-1.5-.3-.1-.1-.2 0-.3.1l-.4.9c-.1.1 0 .2.1.3.5.2 1.2.4 2 .4 1.4 0 2.6-.5 2.6-1.8 0-1.8-2.6-1.5-2.6-1.9zm8.2 1.8l-1.3-3.1c0-.1-.1-.2-.3-.2h-1.7c-.1 0-.2.1-.2.2l-1.9 4.7c-.1.1 0 .3.2.3h1.5c.1 0 .2-.1.3-.2l.2-.5h1.7l.2.5c0 .1.1.2.2.2h1.7c.1 0 .2-.1.2-.3l-.8-1.6zm-2.9 0l.4-1.3.4 1.3h-.8zm9.3-3.2h-1.6c-.1 0-.2.1-.2.2v2l-2.5-2.1c-.1-.1-.1-.1-.3-.1h-.7c-.1 0-.2.1-.2.2v4.8c0 .1.1.2.2.2h1.6c.1 0 .2-.1.2-.2v-2l2.5 2.1c.1.1.1.1.2.1h.7c.1 0 .2-.1.2-.2V148c.1-.1 0-.1-.1-.1zm4.2 0c-.2 0-.5-.1-.7-.1h-2.3c-.1 0-.2.1-.2.2v4.8c0 .1.1.2.2.2h2.3c.3 0 .5 0 .7-.1 1.3-.2 2.2-1.1 2.2-2.5.1-1.4-.9-2.2-2.2-2.5zm0 3.3c-.2.2-.4.4-.7.4h-.6v-2.2h.6c.3 0 .6.1.7.4.1.2.2.4.2.7 0 .2 0 .5-.2.7zm7.5.2h-2.1l2.1-2.7c.1-.1.1-.1.1-.3v-.4c0-.1 0-.2-.2-.2H144c-.1 0-.2.1-.2.2v1.2c0 .1.1.2.2.2h1.8l-2.1 2.7c0 .1-.1.2-.1.3v.4c0 .1.1.2.2.2h4.8c.1 0 .2-.1.2-.2v-1.2c0-.1 0-.2-.1-.2zm6.4 1.3l-1.9-4.7c-.1-.1-.1-.2-.2-.2h-1.7c-.1 0-.2.1-.2.2l-1.9 4.7c-.1.1 0 .3.1.3h1.5c.1 0 .2-.1.2-.2l.2-.5h1.7l.2.5c0 .1.1.2.2.2h1.6c.2 0 .3-.1.2-.3zm-3.5-1.6l.3-1 .1-.3.4 1.3h-.8zm9.4 1.6l-1.5-2.2-.1-.2.1-.2 1.4-2c.1-.1 0-.3-.1-.3h-1.6c-.1 0-.2.1-.3.1l-1.1 1.6h-.3V148c0-.1-.1-.2-.2-.2h-1.6c-.1 0-.2.1-.2.2v4.8c0 .1.1.2.2.2h1.6c.1 0 .2-.1.2-.2v-1.6h.3l1.1 1.7c.1.1.1.1.3.1h1.7c.2 0 .2-.1.1-.3zm-13.2-6.1l-.5-.2h-.3l-.4.4-.4-.4c-.1-.1-.2-.1-.3 0l-.4.2s-.1 0-.1.1v.1l.7.7s.1.1.2.1h.7c.1 0 .1 0 .2-.1l.7-.7c-.1-.1-.1-.1-.1-.2zm-24.6 9.8h-1.9c-.1 0-.1.1-.1.1v3.9c0 .1 0 .1.1.1h1.9c1.3 0 2.4-.7 2.4-2.1 0-1.2-1.1-2-2.4-2zm0 3h-.5v-1.8h.5c.5 0 .8.3.8.9 0 .6-.3.9-.8.9zm7.4-2.1c-.4-.6-1.2-.9-2-.9-.4 0-.7.1-1 .2-.9.3-1.4 1.1-1.4 2 0 1 .6 1.7 1.4 2 .3.1.7.2 1 .2.9 0 1.6-.3 2-.9.3-.4.4-.8.4-1.3s-.2-1-.4-1.3zm-2.1 2.1c-.5 0-.8-.4-.8-.9s.3-.9.8-.9.8.4.8.9c0 .6-.3.9-.8.9zm7.1 1l-.7-1.3c.4-.3.6-.7.6-1.2 0-.8-.6-1.5-1.8-1.5h-2.1c-.1 0-.1.1-.1.1v3.9c0 .1.1.1.1.1h1.3c.1 0 .1 0 .1-.1v-1h.3l.6 1c0 .1.1.1.2.1h1.3c.2.1.3.1.2-.1zm-2.1-2h-.4v-.8h.4c.3 0 .4.2.4.4s-.1.4-.4.4zm6.3-2h-3.9c-.1 0-.1.1-.1.1v1c0 .1 0 .1.1.1h1.1v2.8c0 .1.1.1.1.1h1.3c.1 0 .1 0 .1-.1v-2.8h1.1c.1 0 .1 0 .1-.1v-1c.2 0 .2-.1.1-.1zm5.6 0h-.8c-.1 0-.1 0-.2.1l-1.5 1.9-1.5-1.9c-.1-.1-.1-.1-.2-.1h-.8c-.1 0-.1.1-.1.1v3.9c0 .1.1.1.1.1h1.3c.1 0 .1 0 .1-.1v-1.2l.7.8c0 .1.1.1.1.1h.4s.1 0 .1-.1l.7-.8v1.2c0 .1 0 .1.1.1h1.3c.1 0 .1 0 .1-.1v-3.9c.3 0 .2-.1.1-.1zm5.2 0h-1.3c-.1 0-.1.1-.1.1v2.1c0 .3-.1.5-.2.6-.1.1-.2.1-.4.1-.5 0-.7-.3-.7-.7v-2.1c0-.1-.1-.1-.1-.1h-1.3c-.1 0-.1.1-.1.1v2.3c0 1.3 1 1.9 2.2 1.9h.4c1.1-.1 1.8-.7 1.8-1.8v-2.3l-.2-.2zm5.2 0h-1.3c-.1 0-.1.1-.1.1v1.6l-2-1.7c-.1-.1-.1-.1-.2-.1h-.6c-.1 0-.1.1-.1.1v3.9c0 .1 0 .1.1.1h1.3c.1 0 .1 0 .1-.1v-1.6l2 1.7c.1 0 .1.1.2.1h.6c.1 0 .1 0 .1-.1v-3.9s0-.1-.1-.1zm3.8.2c-.3-.1-.6-.1-.9-.1h-1.9c-.1 0-.1.1-.1.1v3.9c0 .1.1.1.1.1h1.9c.3 0 .6 0 .9-.1.9-.3 1.5-1 1.5-2s-.6-1.7-1.5-1.9zm-.9 2.8h-.5v-1.8h.5c.5 0 .8.3.8.9-.1.6-.4.9-.8.9z"
></path>
<path
    fill="#cfa54b"
    d="M141.1 62.7s1.6-4.8.9-19.5l4.1-2.5 2.7 6.5s-1.9-.6-2.5-1c0-.1 2.4 14.1-5.2 16.5zm11.2-9s5.1.1 18.8-5.2l3.7 3.1-5.3 4.6s0-2 .2-2.7c0 0-12.8 6.6-17.4.2zm11.9 8.1s1.6 4.8 11.1 16.1l-1.7 4.5-6.1-3.5s1.9-.7 2.6-.7c0 0-10.5-9.9-5.9-16.4zm-3.5 13.5s-4.1 3-12 15.4l-4.8-.3 1.5-6.9s1.2 1.6 1.4 2.3c.1.1 6.4-12.9 13.9-10.5zm-14.6 1s-4.1-3.1-18.3-6.9l-1.1-4.6 7-.6s-1.2 1.6-1.7 2.1c-.1 0 14.1 2.1 14.1 10z"
></path>
<path
    fill="#ffffff"
    d="M160.7 141.2h-6.2l5-6.4 1.1-1.4c.1-.2.2-.3.2-.5v-.7c0-.2-.1-.4-.4-.4H150c-.2 0-.4.1-.4.4v2.1c0 .2.1.4.4.4h5.3l-3.5 4.6-2.5 3.3c-.1.1-.2.3-.2.5v.7c0 .2.1.4.4.4h11.1c.2 0 .4-.2.4-.4v-2.1c0-.3-.1-.5-.3-.5z"
></path>
</svg>